:version 1.10
:name ASF
:units
  mass 1
  length 1
  angle deg
:documentation
  ASF file generated by Kaydara
:root
  axis xyz
  order  tx ty tz rx ry rz
  position 0 0 0
  orientation 0 0 0
:bonedata
  begin
    id 1
    name RightUpLegDummy
    direction -0.718183 -0.695806 0.00816078
    length 4.904
    axis 0 0 0 xyz
  end
  begin
    id 2
    name RightUpLeg
    direction 3.53989e-006 -0.995788 0.0916897
    length 17.4976
    axis -3.49089 -0.000906621 0.000287158 xyz
    dof rx ry rz
  end
  begin
    id 3
    name RightLeg
    direction 0.00371093 -0.995096 -0.0988418
    length 16.5821
    axis 3.68512 0.0193738 -0.131023 xyz
    dof rx ry rz
  end
  begin
    id 4
    name RightFoot
    direction 0.000791514 -0.46099 0.887405
    length 3.77069
    axis 4.84075e-005 -0.120479 -0.188788 xyz
    dof rx ry rz
  end
  begin
    id 5
    name RightToes
    direction 0.00124746 -0.014064 0.9999
    length 3.85082
    axis 0.00048216 0.542163 -0.142577 xyz
    dof rx ry rz
  end
  begin
    id 6
    name SpineDummy
    direction 8.36599e-015 1 5.97571e-016
    length 4.6813
    axis 0 0 0 xyz
  end
  begin
    id 7
    name Spine
    direction -4.63632e-008 0.999988 0.00495137
    length 10.1015
    axis -0.00138897 0.000121419 3.25764e-006 xyz
    dof rx ry rz
  end
  begin
    id 8
    name Spine1
    direction 0 0 0
    length 0
    axis -0.00138896 0.000121452 2.39764e-006 xyz
    dof rx ry rz
  end
  begin
    id 9
    name HEadDummy
    direction -3.91456e-008 0.999999 0.00127422
    length 3.43865
    axis -0.00138896 0.000121452 2.39764e-006 xyz
  end
  begin
    id 10
    name HEad
    direction -0.0222688 0.980941 0.193023
    length 5.12695
    axis -0.00138895 0.000121452 2.39764e-006 xyz
    dof rx ry rz
  end
  begin
    id 11
    name LeftShoulder1Dummy
    direction 0.998891 -0.0402508 -0.0244456
    length 3.5433
    axis -0.00138896 0.000121452 2.39764e-006 xyz
  end
  begin
    id 12
    name LeftShoulder1
    direction 0.99951 -0.000327743 0.0313091
    length 4.05031
    axis -0.00138896 0.000121452 2.39764e-006 xyz
    dof rx ry rz
  end
  begin
    id 13
    name LeftArm
    direction 0.998561 -0.00100054 -0.0536182
    length 10.3537
    axis -23.1894 0.134784 0.96751 xyz
    dof rx ry rz
  end
  begin
    id 14
    name LeftForeArm
    direction 0.998903 0.00866434 0.046012
    length 8.70632
    axis -9.91835 -0.06569 -0.177792 xyz
    dof rx ry rz
  end
  begin
    id 15
    name LeftHand
    direction 0.992938 -0.0411636 0.11126
    length 5.32135
    axis -0.00960227 -0.00340091 0.185174 xyz
    dof rx ry rz
  end
  begin
    id 16
    name RightShoulderDummy
    direction -0.998891 -0.0402509 -0.0244414
    length 3.5433
    axis -0.00138896 0.000121452 2.39764e-006 xyz
  end
  begin
    id 17
    name RightShoulder
    direction -0.99951 -0.000327827 0.0313133
    length 4.05031
    axis 0.215806 0.000203644 -0.00680151 xyz
    dof rx ry rz
  end
  begin
    id 18
    name RightArm
    direction -0.998573 -0.000999583 -0.053403
    length 10.3947
    axis -23.2009 -0.134239 -0.9641 xyz
    dof rx ry rz
  end
  begin
    id 19
    name RightForeArm
    direction -0.998898 0.00868026 0.0461306
    length 8.68355
    axis -9.92322 0.0658061 0.178869 xyz
    dof rx ry rz
  end
  begin
    id 20
    name RightHand
    direction -0.992843 -0.0414603 0.112003
    length 5.28593
    axis -0.00960634 0.00330671 -0.185226 xyz
    dof rx ry rz
  end
  begin
    id 21
    name LeftUpLegDummy
    direction 0.718183 -0.695806 0.00816078
    length 4.904
    axis 0 0 0 xyz
  end
  begin
    id 22
    name LeftUpLeg
    direction -6.8115e-006 -0.995793 0.0916336
    length 17.4976
    axis -3.48766 0.00143441 -0.000523914 xyz
    dof rx ry rz
  end
  begin
    id 23
    name LeftLeg
    direction -0.00601357 -0.995091 -0.0987824
    length 16.5821
    axis 3.68177 -0.00654038 -0.00028478 xyz
    dof rx ry rz
  end
  begin
    id 24
    name LeftFoot
    direction -0.00417578 -0.460984 0.887399
    length 3.77069
    axis 1.87232e-006 4.66002e-005 -8.1837e-006 xyz
    dof rx ry rz
  end
  begin
    id 25
    name LeftToes
    direction 0.00818058 -0.00485161 0.999955
    length 3.85048
    axis 1.06246e-005 4.65855e-005 -8.18502e-006 xyz
    dof rx ry rz
  end
:hierarchy
  begin
    root RightUpLegDummy SpineDummy LeftUpLegDummy
    RightUpLegDummy RightUpLeg
    RightUpLeg RightLeg
    RightLeg RightFoot
    RightFoot RightToes
    SpineDummy Spine
    Spine Spine1
    Spine1 HEadDummy LeftShoulder1Dummy RightShoulderDummy
    HEadDummy HEad
    LeftShoulder1Dummy LeftShoulder1
    LeftShoulder1 LeftArm
    LeftArm LeftForeArm
    LeftForeArm LeftHand
    RightShoulderDummy RightShoulder
    RightShoulder RightArm
    RightArm RightForeArm
    RightForeArm RightHand
    LeftUpLegDummy LeftUpLeg
    LeftUpLeg LeftLeg
    LeftLeg LeftFoot
    LeftFoot LeftToes
  end

:SAMPLES-PER-SECOND 30
:FULLY-SPECIFIED
:DEGREES
1
root  -2.87715 40.8887 0.520072 -32.8059 -88.6339 31.6571
RightUpLeg  5.2131 -1.81071 -1.73896
RightLeg  -0.52009 -19.8917 -0.161358
RightFoot  -2.42616 -0.246164 2.95954
RightToes  -3.13006e-008 1.75238e-005 3.56266e-009
Spine  -8.02509 0.133604 -2.20437
Spine1  12.5971 0.0412337 1.25804
HEad  -15.3621 -3.75327 4.03827
LeftShoulder1  1.82043 -2.46748 -24.2643
LeftArm  -45.5224 23.4717 -53.9562
LeftForeArm  56.8865 -51.4061 -9.72701
LeftHand  -0.741257 -5.63714 8.11582
RightShoulder  2.21841 3.70772 24.6855
RightArm  -23.1274 -19.6972 37.5661
RightForeArm  26.0537 56.5185 14.8268
RightHand  -0.521921 7.4933 -5.05003
LeftUpLeg  4.18946 0.867859 1.64569
LeftLeg  -1.01868 11.2643 -0.440532
LeftFoot  -1.35893 0.236575 -2.69581
LeftToes  4.76866e-008 1.46233e-008 1.30548e-009
2
root  -2.89163 40.8874 0.513467 -28.6232 -88.4043 27.4209
RightUpLeg  5.34039 -1.81684 -1.73012
RightLeg  -0.549981 -20.1265 -0.176798
RightFoot  -2.45368 -0.250885 3.04187
RightToes  -3.13006e-008 1.75238e-005 3.56266e-009
Spine  -8.05407 0.125786 -2.10989
Spine1  12.4169 0.0855412 1.07463
HEad  -15.2398 -4.08904 4.3136
LeftShoulder1  1.76277 -2.34423 -23.9058
LeftArm  -45.8622 22.3584 -53.7295
LeftForeArm  56.7942 -51.2008 -9.64836
LeftHand  -0.767821 -5.44735 8.5245
RightShoulder  2.25069 3.81256 24.6843
RightArm  -22.7373 -19.5638 36.7363
RightForeArm  26.2719 58.2085 15.9236
RightHand  -0.531369 7.85763 -5.01323
LeftUpLeg  4.24646 0.860247 1.64447
LeftLeg  -1.0348 11.0388 -0.437982
LeftFoot  -1.37976 0.237699 -2.70949
LeftToes  4.76866e-008 1.46233e-008 1.30548e-009
3
root  -2.90578 40.8862 0.506085 -26.0328 -88.2248 24.7822
RightUpLeg  5.47266 -1.83277 -1.72046
RightLeg  -0.616195 -20.3009 -0.153304
RightFoot  -2.47102 -0.246009 2.97234
RightToes  -3.13006e-008 1.75238e-005 3.56266e-009
Spine  -8.08791 0.118104 -2.26357
Spine1  12.3785 0.0346087 1.29081
HEad  -15.1811 -4.6087 4.46222
LeftShoulder1  1.82945 -2.54598 -24.0087
LeftArm  -46.7742 21.7416 -53.3653
LeftForeArm  56.9207 -51.0605 -9.58381
LeftHand  -0.848843 -5.87838 9.05345
RightShoulder  2.22755 3.77192 24.5313
RightArm  -22.7683 -19.3628 36.5071
RightForeArm  26.2908 59.4376 16.8146
RightHand  -0.572921 7.93729 -5.34867
LeftUpLeg  4.2616 0.848523 1.6433
LeftLeg  -0.955532 10.8686 -0.400629
LeftFoot  -1.42309 0.238904 -2.72465
LeftToes  4.76866e-008 1.46233e-008 1.30548e-009
4
root  -2.90253 40.8855 0.495829 -27.9057 -88.1594 26.7337
RightUpLeg  5.30002 -1.8241 -1.754
RightLeg  -0.430219 -20.3671 -0.274595
RightFoot  -2.54586 -0.241875 2.91083
RightToes  -3.13006e-008 1.75238e-005 3.56266e-009
Spine  -8.28465 0.132221 -2.52995
Spine1  12.5435 0.0144804 1.54395
HEad  -15.1403 -5.4121 4.88167
LeftShoulder1  1.83617 -2.54529 -24.1292
LeftArm  -47.5273 21.0429 -53.3245
LeftForeArm  56.653 -50.5662 -9.40223
LeftHand  -0.882585 -5.44872 9.756
RightShoulder  2.25709 3.82697 24.7114
RightArm  -22.8674 -18.4335 36.0646
RightForeArm  25.4928 60.1803 17.491
RightHand  -0.547746 7.803 -5.17525
LeftUpLeg  4.15192 0.810439 1.58262
LeftLeg  -0.924262 10.8577 -0.427722
LeftFoot  -1.41868 0.242611 -2.77892
LeftToes  4.76866e-008 1.46233e-008 1.30548e-009
5
root  -2.89741 40.8842 0.502834 -28.9235 -88.2045 27.6818
RightUpLeg  5.31845 -1.84484 -1.78059
RightLeg  -0.324239 -20.3132 -0.31275
RightFoot  -2.56886 -0.242034 2.91187
RightToes  -3.13006e-008 1.75238e-005 3.56266e-009
Spine  -8.29494 0.017037 -2.73762
Spine1  12.8244 -0.184453 1.86603
HEad  -15.4041 -5.76204 4.99358
LeftShoulder1  1.76157 -2.29188 -24.1699
LeftArm  -47.7279 20.7902 -53.4297
LeftForeArm  55.0433 -49.8355 -9.21587
LeftHand  -0.840535 -4.63387 10.0084
RightShoulder  2.35061 4.04068 25.0967
RightArm  -23.1883 -17.2048 35.5378
RightForeArm  24.836 61.032 18.266
RightHand  -0.509674 7.8593 -4.8285
LeftUpLeg  4.20272 0.820183 1.56217
LeftLeg  -0.871176 10.9131 -0.424264
LeftFoot  -1.47767 0.243146 -2.78397
LeftToes  4.76866e-008 1.46233e-008 1.30548e-009
6
root  -2.88148 40.8828 0.5256 -35.259 -88.4726 33.9568
RightUpLeg  5.2157 -1.88615 -1.89559
RightLeg  -0.0998961 -19.8742 -0.402762
RightFoot  -2.59779 -0.252458 3.06759
RightToes  -3.13006e-008 1.75238e-005 3.56266e-009
Spine  -8.35576 -0.210825 -2.94274
Spine1  13.176 -0.506114 2.19673
HEad  -16.2885 -7.25099 5.18781
LeftShoulder1  1.7399 -2.19704 -24.2968
LeftArm  -47.7893 21.3239 -53.563
LeftForeArm  52.6565 -49.3197 -9.16827
LeftHand  -0.848416 -4.96002 9.79016
RightShoulder  2.43489 4.26339 25.2965
RightArm  -24.1091 -13.8194 35.535
RightForeArm  23.8011 60.7542 18.1485
RightHand  -0.470306 8.33605 -4.34472
LeftUpLeg  4.33317 0.857388 1.51576
LeftLeg  -0.961937 11.2161 -0.523291
LeftFoot  -1.44856 0.240191 -2.73482
LeftToes  4.76866e-008 1.46233e-008 1.30548e-009
7
root  -2.86665 40.882 0.564088 -62.6479 -88.8996 61.1341
RightUpLeg  5.27441 -1.91611 -1.99616
RightLeg  0.020994 -19.0721 -0.453854
RightFoot  -2.56772 -0.255819 3.10856
RightToes  -3.13006e-008 1.75238e-005 3.56266e-009
Spine  -7.88029 -0.565781 -3.03874
Spine1  12.978 -0.935227 2.35458
HEad  -16.4391 -8.78167 5.58955
LeftShoulder1  1.9 -2.67571 -24.5424
LeftArm  -47.4757 23.6142 -53.6049
LeftForeArm  46.8594 -50.1647 -9.88497
LeftHand  -0.720093 -4.24668 8.95485
RightShoulder  2.46014 4.28531 25.5429
RightArm  -24.5217 -8.56171 35.7107
RightForeArm  22.7453 60.5656 18.1059
RightHand  -0.475041 8.21783 -4.41923
LeftUpLeg  4.73818 0.932643 1.47633
LeftLeg  -1.17868 11.8503 -0.624509
LeftFoot  -1.43541 0.23587 -2.66448
LeftToes  4.76866e-008 1.46233e-008 1.30548e-009
8
root  -2.82201 40.8826 0.629411 -134.614 -88.8412 132.986
RightUpLeg  4.97364 -1.76618 -2.01209
RightLeg  0.364218 -17.8195 -0.690203
RightFoot  -2.48993 -0.253502 3.05573
RightToes  -3.13006e-008 1.75238e-005 3.56266e-009
Spine  -7.04347 -0.789951 -2.93492
Spine1  12.1725 -1.21004 2.36758
HEad  -16.7015 -11.4069 6.08058
LeftShoulder1  1.99099 -2.94737 -24.666
LeftArm  -47.2847 26.2787 -54.2808
LeftForeArm  42.0366 -51.0321 -10.5954
LeftHand  -0.66082 -4.07273 8.35714
RightShoulder  2.51744 4.44759 25.6216
RightArm  -23.9533 -3.20791 35.6027
RightForeArm  21.8258 62.5237 20.0006
RightHand  -0.461782 7.92629 -4.38765
LeftUpLeg  5.02313 1.03837 1.43566
LeftLeg  -1.27223 13.2457 -0.736258
LeftFoot  -1.52146 0.237704 -2.68989
LeftToes  4.76866e-008 1.46233e-008 1.30548e-009
9
root  -2.77397 40.8857 0.686751 -166.329 -87.2105 164.701
RightUpLeg  4.49229 -1.59246 -2.05773
RightLeg  0.687611 -16.1694 -0.920801
RightFoot  -2.39501 -0.260948 3.12474
RightToes  -3.13006e-008 1.75238e-005 3.56266e-009
Spine  -6.10759 -0.831007 -2.83003
Spine1  11.0379 -1.29206 2.43562
HEad  -16.7688 -15.1258 6.98812
LeftShoulder1  1.97025 -2.88647 -24.6259
LeftArm  -47.5511 28.7375 -55.6648
LeftForeArm  40.8845 -52.0317 -11.1271
LeftHand  -0.519141 -3.44147 7.08693
RightShoulder  2.66322 4.91961 25.5712
RightArm  -23.3223 2.31425 34.986
RightForeArm  20.4862 65.7791 23.9582
RightHand  -0.395909 7.1991 -4.00681
LeftUpLeg  5.19811 1.16992 1.40711
LeftLeg  -1.32324 14.8474 -0.924459
LeftFoot  -1.57251 0.242086 -2.75492
LeftToes  4.76866e-008 1.46233e-008 1.30548e-009
10
root  -2.7553 40.8914 0.775443 -173.952 -85.294 172.487
RightUpLeg  4.04026 -1.3469 -2.00932
RightLeg  0.594407 -14.4201 -0.966573
RightFoot  -2.12234 -0.278391 3.27196
RightToes  -3.13006e-008 1.75238e-005 3.56266e-009
Spine  -5.94144 -0.624428 -1.72072
Spine1  10.7208 -0.905438 1.39022
HEad  -16.4601 -18.9522 8.05565
LeftShoulder1  1.82678 -2.56527 -23.8662
LeftArm  -47.8595 30.1275 -57.6923
LeftForeArm  42.1023 -52.368 -11.1911
LeftHand  -0.49863 -4.01339 6.42757
RightShoulder  2.79213 5.33838 25.528
RightArm  -22.741 7.28157 32.4335
RightForeArm  23.0008 69.9794 30.6475
RightHand  -0.190821 7.476 -2.09963
LeftUpLeg  5.38511 1.20326 1.35973
LeftLeg  -1.6551 16.7942 -1.03259
LeftFoot  -1.58367 0.240023 -2.7196
LeftToes  4.76866e-008 1.46233e-008 1.30548e-009
11
root  -2.76307 40.9006 0.866496 -177.503 -83.324 176.246
RightUpLeg  3.70992 -1.07281 -1.92886
RightLeg  0.245953 -12.7335 -0.970634
RightFoot  -1.73418 -0.28689 3.27148
RightToes  -3.13006e-008 1.75238e-005 3.56266e-009
Spine  -5.57312 0.193471 -0.405296
Spine1  9.8956 0.0741073 0.468307
HEad  -16.1005 -23.5609 9.32021
LeftShoulder1  1.86353 -2.73119 -23.633
LeftArm  -48.5223 30.0845 -59.3648
LeftForeArm  44.1429 -51.024 -10.4364
LeftHand  -0.503823 -5.08866 5.89598
RightShoulder  2.75627 5.38491 24.9292
RightArm  -25.9896 12.2794 28.1492
RightForeArm  29.0881 72.9565 37.0206
RightHand  0.447688 7.63332 3.74632
LeftUpLeg  5.59141 1.24498 1.33861
LeftLeg  -2.06399 18.7378 -1.19768
LeftFoot  -1.55661 0.244096 -2.77961
LeftToes  4.76866e-008 1.46233e-008 1.30548e-009
12
root  -2.74417 40.9089 0.964883 -179.268 -81.8607 178.385
RightUpLeg  3.26324 -0.798472 -1.81426
RightLeg  -0.170426 -11.6444 -0.944756
RightFoot  -1.29937 -0.297532 3.28369
RightToes  -3.13006e-008 1.75238e-005 3.56266e-009
Spine  -5.18457 0.78116 0.357072
Spine1  8.98408 0.637401 0.345888
HEad  -15.5072 -26.4963 9.79723
LeftShoulder1  2.02937 -3.21427 -23.9831
LeftArm  -49.6704 29.9799 -60.8406
LeftForeArm  45.6722 -49.6889 -9.77547
LeftHand  -0.451882 -5.83752 4.988
RightShoulder  2.55576 5.22805 23.0968
RightArm  -33.582 19.7669 24.2296
RightForeArm  22.0081 71.6548 35.103
RightHand  1.08975 6.71814 9.94473
LeftUpLeg  5.37209 1.23044 1.3247
LeftLeg  -2.19346 20.2048 -1.24208
LeftFoot  -1.53247 0.245498 -2.79791
LeftToes  4.76866e-008 1.46233e-008 1.30548e-009
13
root  -2.71549 40.9148 1.07938 179.657 -80.7883 179.702
RightUpLeg  2.91569 -0.689154 -1.81029
RightLeg  -0.45142 -10.7494 -0.87808
RightFoot  -0.913552 -0.314719 3.37837
RightToes  -3.13006e-008 1.75238e-005 3.56266e-009
Spine  -4.42348 1.06931 2.2374
Spine1  7.89414 1.30807 -1.72986
HEad  -16.2104 -30.5302 10.411
LeftShoulder1  2.07685 -3.4617 -23.5711
LeftArm  -49.6259 29.6055 -61.654
LeftForeArm  46.3617 -48.02 -9.08238
LeftHand  -0.412941 -5.29241 4.79729
RightShoulder  2.26767 4.84516 20.8407
RightArm  -43.2594 28.2063 20.6845
RightForeArm  8.10972 65.2431 24.9649
RightHand  0.857821 6.02231 8.39763
LeftUpLeg  5.23683 1.21963 1.27901
LeftLeg  -2.35914 21.3145 -1.3264
LeftFoot  -1.51439 0.237132 -2.66403
LeftToes  4.76866e-008 1.46233e-008 1.30548e-009
14
root  -2.68807 40.9208 1.18755 179.707 -80.1002 179.855
RightUpLeg  2.55095 -0.578043 -1.89893
RightLeg  -0.513903 -10.1775 -0.974004
RightFoot  -0.667313 -0.33994 3.58793
RightToes  -3.13006e-008 1.75238e-005 3.56266e-009
Spine  -3.18256 1.4159 4.51205
Spine1  6.30834 2.22879 -4.74489
HEad  -16.2353 -32.5887 11.5565
LeftShoulder1  2.16494 -3.80962 -23.3453
LeftArm  -48.3969 28.8237 -61.1697
LeftForeArm  47.5659 -46.1375 -8.33607
LeftHand  -0.382128 -5.31242 4.4598
RightShoulder  1.84322 4.05161 17.8589
RightArm  -54.2383 34.2465 16.4828
RightForeArm  -0.554353 56.1614 17.0911
RightHand  0.0928096 6.33023 0.726625
LeftUpLeg  5.11474 1.06963 1.05649
LeftLeg  -2.59137 22.1367 -1.39454
LeftFoot  -1.39196 0.22601 -2.48706
LeftToes  4.76866e-008 1.46233e-008 1.30548e-009
